<svg width="22" height="22" viewBox="0 0 22 22" fill="none" xmlns="http://www.w3.org/2000/svg">
<path fill-rule="evenodd" clip-rule="evenodd" d="M14.7076 4.4724C14.5421 3.19401 13.4582 2.2 12.1367 2.2H9.86342C8.541 2.2 7.45806 3.19401 7.29254 4.4724H5.56073C3.70741 4.4724 2.2001 5.97619 2.2001 7.8251V10.1927H2.2C2.20003 10.1942 2.20007 10.1958 2.2001 10.1974V10.8767C2.2001 10.932 2.207 10.9865 2.22025 11.039C2.27365 13.0955 2.36952 15.8214 2.38489 16.1603C2.4474 16.9905 2.76524 17.8296 3.26005 18.4212C3.94855 19.2515 4.79641 19.6222 5.97883 19.6222C7.61292 19.631 9.41429 19.631 11.1637 19.631C12.9202 19.631 14.6247 19.631 16.0642 19.6222C17.2299 19.6222 18.1042 19.2418 18.7839 18.4212C19.2787 17.8296 19.5965 16.9817 19.6414 16.1603C19.6509 15.9853 19.6805 14.8075 19.7141 13.4717L19.7141 13.4711L19.7142 13.4707C19.7346 12.6597 19.7564 11.7906 19.7761 11.0525C19.7918 10.9959 19.8 10.9369 19.8 10.8767V7.8251C19.8 5.97619 18.2962 4.4724 16.4482 4.4724H14.7076ZM9.86342 3.52065H12.1367C12.7284 3.52065 13.2232 3.92565 13.3711 4.4724H8.62816C8.77608 3.92565 9.27088 3.52065 9.86342 3.52065Z" fill="white"/>
<path opacity="0.4" d="M2.2 10.1927C2.24402 12.2511 2.36728 15.772 2.38489 16.1603C2.4474 16.9905 2.76524 17.8296 3.26005 18.4212C3.94855 19.2515 4.79641 19.6222 5.97883 19.6222C7.61292 19.631 9.41429 19.631 11.1637 19.631C12.9202 19.631 14.6247 19.631 16.0642 19.6222C17.2299 19.6222 18.1042 19.2418 18.7839 18.4212C19.2787 17.8296 19.5965 16.9817 19.6414 16.1603C19.659 15.8336 19.7471 12.0117 19.7999 10.1927H2.2Z" fill="#2D99FF"/>
<path d="M10.3398 13.9836V15.1229C10.3398 15.4874 10.6356 15.7832 11.0001 15.7832C11.3646 15.7832 11.6604 15.4874 11.6604 15.1229V13.9836C11.6604 13.6191 11.3646 13.3232 11.0001 13.3232C10.6356 13.3232 10.3398 13.6191 10.3398 13.9836Z" fill="#2D99FF"/>
<path d="M12.1367 2.2C13.4582 2.2 14.5421 3.19401 14.7076 4.4724H16.4482C18.2962 4.4724 19.8 5.97619 19.8 7.8251V10.8767C19.8 11.0986 19.6882 11.3055 19.5042 11.4278C17.6887 12.6296 15.5334 13.43 13.2725 13.7425C13.2416 13.7469 13.2117 13.7487 13.1818 13.7487C12.8833 13.7487 12.6165 13.5471 12.5417 13.2512C12.3639 12.5504 11.7273 12.06 10.9957 12.06C10.2543 12.06 9.62482 12.5398 9.42936 13.2547C9.34131 13.5743 9.03404 13.7786 8.70124 13.7346C6.45525 13.4212 4.30874 12.6244 2.49681 11.4278C2.31103 11.3063 2.2001 11.0986 2.2001 10.8767V7.8251C2.2001 5.97619 3.70741 4.4724 5.56072 4.4724H7.29254C7.45806 3.19401 8.541 2.2 9.86341 2.2H12.1367ZM12.1367 3.52065H9.86341C9.27088 3.52065 8.77608 3.92565 8.62816 4.4724H13.3711C13.2232 3.92565 12.7284 3.52065 12.1367 3.52065Z" fill="#2D99FF"/>
</svg>
